<mxfile host="Electron" modified="2023-09-21T17:34:53.924Z" agent="Mozilla/5.0 (Windows NT 10.0; Win64; x64) AppleWebKit/537.36 (KHTML, like Gecko) draw.io/21.1.2 Chrome/106.0.5249.199 Electron/21.4.3 Safari/537.36" etag="5NuDIvLzGEk2iF2J9Ki0" version="21.1.2" type="device">
  <diagram name="Страница 1" id="x1J_cCR0CuYF4QXd56yt">
    <mxGraphModel dx="894" dy="1141" grid="1" gridSize="10" guides="1" tooltips="1" connect="1" arrows="1" fold="1" page="1" pageScale="1" pageWidth="827" pageHeight="1169" math="0" shadow="0">
      <root>
        <mxCell id="0" />
        <mxCell id="1" parent="0" />
        <mxCell id="jPjk46TfuHlNJ93suGcI-2" value="Элемент ландшафта" style="rounded=0;whiteSpace=wrap;html=1;fontSize=20;" parent="1" vertex="1">
          <mxGeometry x="100" y="500" width="120" height="60" as="geometry" />
        </mxCell>
        <mxCell id="erc7zpTAC2eEjMYiwTy_-21" style="edgeStyle=orthogonalEdgeStyle;rounded=0;orthogonalLoop=1;jettySize=auto;html=1;exitX=0.5;exitY=1;exitDx=0;exitDy=0;endArrow=none;endFill=0;startArrow=none;startFill=0;fontSize=20;" parent="1" source="jPjk46TfuHlNJ93suGcI-9" target="jPjk46TfuHlNJ93suGcI-2" edge="1">
          <mxGeometry relative="1" as="geometry" />
        </mxCell>
        <mxCell id="jPjk46TfuHlNJ93suGcI-9" value="&amp;nbsp;Ландшафт&lt;br style=&quot;font-size: 20px;&quot;&gt;поля" style="rounded=0;whiteSpace=wrap;html=1;fontSize=20;" parent="1" vertex="1">
          <mxGeometry x="100" y="380" width="120" height="60" as="geometry" />
        </mxCell>
        <mxCell id="erc7zpTAC2eEjMYiwTy_-20" style="edgeStyle=orthogonalEdgeStyle;rounded=0;orthogonalLoop=1;jettySize=auto;html=1;exitX=0.5;exitY=1;exitDx=0;exitDy=0;endArrow=none;endFill=0;startArrow=none;startFill=0;fontSize=20;" parent="1" source="jPjk46TfuHlNJ93suGcI-10" target="jPjk46TfuHlNJ93suGcI-9" edge="1">
          <mxGeometry relative="1" as="geometry" />
        </mxCell>
        <mxCell id="jPjk46TfuHlNJ93suGcI-10" value="Игровое поле" style="rounded=0;whiteSpace=wrap;html=1;fontSize=20;" parent="1" vertex="1">
          <mxGeometry x="100" y="260" width="120" height="60" as="geometry" />
        </mxCell>
        <mxCell id="jPjk46TfuHlNJ93suGcI-34" value="Миниатюра" style="rounded=0;whiteSpace=wrap;html=1;fontSize=20;" parent="1" vertex="1">
          <mxGeometry x="640" y="500" width="120" height="60" as="geometry" />
        </mxCell>
        <mxCell id="erc7zpTAC2eEjMYiwTy_-13" style="edgeStyle=orthogonalEdgeStyle;rounded=0;orthogonalLoop=1;jettySize=auto;html=1;exitX=1;exitY=0.5;exitDx=0;exitDy=0;entryX=0;entryY=0.5;entryDx=0;entryDy=0;endArrow=none;endFill=0;startArrow=none;startFill=0;fontSize=20;" parent="1" source="erc7zpTAC2eEjMYiwTy_-1" target="erc7zpTAC2eEjMYiwTy_-5" edge="1">
          <mxGeometry relative="1" as="geometry" />
        </mxCell>
        <mxCell id="erc7zpTAC2eEjMYiwTy_-19" style="edgeStyle=orthogonalEdgeStyle;rounded=0;orthogonalLoop=1;jettySize=auto;html=1;exitX=0;exitY=0.5;exitDx=0;exitDy=0;entryX=1;entryY=0.5;entryDx=0;entryDy=0;endArrow=none;endFill=0;startArrow=none;startFill=0;fontSize=20;" parent="1" source="erc7zpTAC2eEjMYiwTy_-1" target="jPjk46TfuHlNJ93suGcI-10" edge="1">
          <mxGeometry relative="1" as="geometry" />
        </mxCell>
        <mxCell id="grEw2Zf5ow2gAflC5v8r-11" style="edgeStyle=orthogonalEdgeStyle;rounded=0;orthogonalLoop=1;jettySize=auto;html=1;exitX=0.5;exitY=1;exitDx=0;exitDy=0;entryX=0.5;entryY=0;entryDx=0;entryDy=0;endArrow=none;endFill=0;" edge="1" parent="1" source="erc7zpTAC2eEjMYiwTy_-1" target="grEw2Zf5ow2gAflC5v8r-6">
          <mxGeometry relative="1" as="geometry" />
        </mxCell>
        <mxCell id="erc7zpTAC2eEjMYiwTy_-1" value="Игровая партия" style="rounded=0;whiteSpace=wrap;html=1;fontSize=20;" parent="1" vertex="1">
          <mxGeometry x="280" y="260" width="120" height="60" as="geometry" />
        </mxCell>
        <mxCell id="grEw2Zf5ow2gAflC5v8r-8" style="edgeStyle=orthogonalEdgeStyle;rounded=0;orthogonalLoop=1;jettySize=auto;html=1;exitX=0.5;exitY=1;exitDx=0;exitDy=0;entryX=0.5;entryY=0;entryDx=0;entryDy=0;endArrow=none;endFill=0;" edge="1" parent="1" source="erc7zpTAC2eEjMYiwTy_-3" target="erc7zpTAC2eEjMYiwTy_-5">
          <mxGeometry relative="1" as="geometry" />
        </mxCell>
        <mxCell id="erc7zpTAC2eEjMYiwTy_-3" value="Карта миссии" style="rounded=0;whiteSpace=wrap;html=1;fontSize=20;" parent="1" vertex="1">
          <mxGeometry x="460" y="140" width="120" height="60" as="geometry" />
        </mxCell>
        <mxCell id="erc7zpTAC2eEjMYiwTy_-5" value="Раунд партии" style="rounded=0;whiteSpace=wrap;html=1;fontSize=20;" parent="1" vertex="1">
          <mxGeometry x="460" y="260" width="120" height="60" as="geometry" />
        </mxCell>
        <mxCell id="grEw2Zf5ow2gAflC5v8r-10" style="edgeStyle=orthogonalEdgeStyle;rounded=0;orthogonalLoop=1;jettySize=auto;html=1;exitX=0.5;exitY=0;exitDx=0;exitDy=0;entryX=0.5;entryY=1;entryDx=0;entryDy=0;endArrow=none;endFill=0;" edge="1" parent="1" source="erc7zpTAC2eEjMYiwTy_-6" target="erc7zpTAC2eEjMYiwTy_-5">
          <mxGeometry relative="1" as="geometry" />
        </mxCell>
        <mxCell id="grEw2Zf5ow2gAflC5v8r-12" style="edgeStyle=orthogonalEdgeStyle;rounded=0;orthogonalLoop=1;jettySize=auto;html=1;exitX=0;exitY=0.5;exitDx=0;exitDy=0;entryX=1;entryY=0.5;entryDx=0;entryDy=0;endArrow=none;endFill=0;" edge="1" parent="1" source="erc7zpTAC2eEjMYiwTy_-6" target="grEw2Zf5ow2gAflC5v8r-6">
          <mxGeometry relative="1" as="geometry" />
        </mxCell>
        <mxCell id="erc7zpTAC2eEjMYiwTy_-6" value="Игрок" style="rounded=0;whiteSpace=wrap;html=1;fontSize=20;" parent="1" vertex="1">
          <mxGeometry x="460" y="380" width="120" height="60" as="geometry" />
        </mxCell>
        <mxCell id="grEw2Zf5ow2gAflC5v8r-14" style="edgeStyle=orthogonalEdgeStyle;rounded=0;orthogonalLoop=1;jettySize=auto;html=1;exitX=1;exitY=0.5;exitDx=0;exitDy=0;entryX=0;entryY=0.5;entryDx=0;entryDy=0;endArrow=none;endFill=0;" edge="1" parent="1" source="erc7zpTAC2eEjMYiwTy_-7" target="erc7zpTAC2eEjMYiwTy_-8">
          <mxGeometry relative="1" as="geometry" />
        </mxCell>
        <mxCell id="erc7zpTAC2eEjMYiwTy_-7" value="Отряд" style="rounded=0;whiteSpace=wrap;html=1;fontSize=20;" parent="1" vertex="1">
          <mxGeometry x="280" y="500" width="120" height="60" as="geometry" />
        </mxCell>
        <mxCell id="grEw2Zf5ow2gAflC5v8r-15" style="edgeStyle=orthogonalEdgeStyle;rounded=0;orthogonalLoop=1;jettySize=auto;html=1;exitX=1;exitY=0.5;exitDx=0;exitDy=0;entryX=0;entryY=0.5;entryDx=0;entryDy=0;endArrow=none;endFill=0;" edge="1" parent="1" source="erc7zpTAC2eEjMYiwTy_-8" target="jPjk46TfuHlNJ93suGcI-34">
          <mxGeometry relative="1" as="geometry" />
        </mxCell>
        <mxCell id="erc7zpTAC2eEjMYiwTy_-8" value="Состав отряда" style="rounded=0;whiteSpace=wrap;html=1;fontSize=20;" parent="1" vertex="1">
          <mxGeometry x="460" y="500" width="120" height="60" as="geometry" />
        </mxCell>
        <mxCell id="erc7zpTAC2eEjMYiwTy_-49" value="1" style="text;whiteSpace=wrap;html=1;fontFamily=Verdana;fontSize=20;" parent="1" vertex="1">
          <mxGeometry x="220" y="258" width="20" height="30" as="geometry" />
        </mxCell>
        <mxCell id="erc7zpTAC2eEjMYiwTy_-50" value="ꝏ" style="text;whiteSpace=wrap;html=1;fontFamily=Verdana;fontSize=20;" parent="1" vertex="1">
          <mxGeometry x="258" y="258" width="20" height="30" as="geometry" />
        </mxCell>
        <mxCell id="erc7zpTAC2eEjMYiwTy_-51" value="1" style="text;whiteSpace=wrap;html=1;fontFamily=Verdana;fontSize=20;" parent="1" vertex="1">
          <mxGeometry x="160" y="470" width="20" height="30" as="geometry" />
        </mxCell>
        <mxCell id="erc7zpTAC2eEjMYiwTy_-52" value="ꝏ" style="text;whiteSpace=wrap;html=1;fontFamily=Verdana;fontSize=20;" parent="1" vertex="1">
          <mxGeometry x="162" y="350" width="20" height="30" as="geometry" />
        </mxCell>
        <mxCell id="erc7zpTAC2eEjMYiwTy_-53" value="ꝏ" style="text;whiteSpace=wrap;html=1;fontFamily=Verdana;fontSize=20;" parent="1" vertex="1">
          <mxGeometry x="160" y="427" width="20" height="30" as="geometry" />
        </mxCell>
        <mxCell id="UxmVXuUS_5VSfVQX4XQ5-7" value="1" style="text;whiteSpace=wrap;html=1;fontFamily=Verdana;fontSize=20;" parent="1" vertex="1">
          <mxGeometry x="162" y="312" width="20" height="30" as="geometry" />
        </mxCell>
        <mxCell id="UxmVXuUS_5VSfVQX4XQ5-8" value="1" style="text;whiteSpace=wrap;html=1;fontFamily=Verdana;fontSize=20;" parent="1" vertex="1">
          <mxGeometry x="401" y="258" width="20" height="30" as="geometry" />
        </mxCell>
        <mxCell id="UxmVXuUS_5VSfVQX4XQ5-9" value="ꝏ" style="text;whiteSpace=wrap;html=1;fontFamily=Verdana;fontSize=20;" parent="1" vertex="1">
          <mxGeometry x="442" y="260" width="20" height="30" as="geometry" />
        </mxCell>
        <mxCell id="grEw2Zf5ow2gAflC5v8r-9" style="edgeStyle=orthogonalEdgeStyle;rounded=0;orthogonalLoop=1;jettySize=auto;html=1;exitX=0;exitY=0.5;exitDx=0;exitDy=0;endArrow=none;endFill=0;" edge="1" parent="1" source="grEw2Zf5ow2gAflC5v8r-1" target="erc7zpTAC2eEjMYiwTy_-5">
          <mxGeometry relative="1" as="geometry" />
        </mxCell>
        <mxCell id="grEw2Zf5ow2gAflC5v8r-1" value="Раунд" style="rounded=0;whiteSpace=wrap;html=1;fontSize=20;" vertex="1" parent="1">
          <mxGeometry x="640" y="260" width="120" height="60" as="geometry" />
        </mxCell>
        <mxCell id="grEw2Zf5ow2gAflC5v8r-13" style="edgeStyle=orthogonalEdgeStyle;rounded=0;orthogonalLoop=1;jettySize=auto;html=1;exitX=0.5;exitY=1;exitDx=0;exitDy=0;endArrow=none;endFill=0;" edge="1" parent="1" source="grEw2Zf5ow2gAflC5v8r-6" target="erc7zpTAC2eEjMYiwTy_-7">
          <mxGeometry relative="1" as="geometry" />
        </mxCell>
        <mxCell id="grEw2Zf5ow2gAflC5v8r-6" value="Ростер игрока" style="rounded=0;whiteSpace=wrap;html=1;fontSize=20;" vertex="1" parent="1">
          <mxGeometry x="280" y="380" width="120" height="60" as="geometry" />
        </mxCell>
        <mxCell id="grEw2Zf5ow2gAflC5v8r-17" value="1" style="text;whiteSpace=wrap;html=1;fontFamily=Verdana;fontSize=20;" vertex="1" parent="1">
          <mxGeometry x="520" y="350" width="20" height="30" as="geometry" />
        </mxCell>
        <mxCell id="grEw2Zf5ow2gAflC5v8r-18" value="ꝏ" style="text;whiteSpace=wrap;html=1;fontFamily=Verdana;fontSize=20;" vertex="1" parent="1">
          <mxGeometry x="520" y="306" width="20" height="30" as="geometry" />
        </mxCell>
        <mxCell id="grEw2Zf5ow2gAflC5v8r-19" value="ꝏ" style="text;whiteSpace=wrap;html=1;fontFamily=Verdana;fontSize=20;" vertex="1" parent="1">
          <mxGeometry x="520" y="230" width="20" height="30" as="geometry" />
        </mxCell>
        <mxCell id="grEw2Zf5ow2gAflC5v8r-22" value="1" style="text;whiteSpace=wrap;html=1;fontFamily=Verdana;fontSize=20;" vertex="1" parent="1">
          <mxGeometry x="520" y="190" width="20" height="30" as="geometry" />
        </mxCell>
        <mxCell id="grEw2Zf5ow2gAflC5v8r-23" value="ꝏ" style="text;whiteSpace=wrap;html=1;fontFamily=Verdana;fontSize=20;" vertex="1" parent="1">
          <mxGeometry x="580" y="260" width="20" height="30" as="geometry" />
        </mxCell>
        <mxCell id="grEw2Zf5ow2gAflC5v8r-24" value="1" style="text;whiteSpace=wrap;html=1;fontFamily=Verdana;fontSize=20;" vertex="1" parent="1">
          <mxGeometry x="620" y="260" width="20" height="30" as="geometry" />
        </mxCell>
        <mxCell id="grEw2Zf5ow2gAflC5v8r-25" value="ꝏ" style="text;whiteSpace=wrap;html=1;fontFamily=Verdana;fontSize=20;" vertex="1" parent="1">
          <mxGeometry x="400" y="380" width="20" height="30" as="geometry" />
        </mxCell>
        <mxCell id="grEw2Zf5ow2gAflC5v8r-26" value="1" style="text;whiteSpace=wrap;html=1;fontFamily=Verdana;fontSize=20;" vertex="1" parent="1">
          <mxGeometry x="440" y="380" width="20" height="30" as="geometry" />
        </mxCell>
        <mxCell id="grEw2Zf5ow2gAflC5v8r-27" value="ꝏ" style="text;whiteSpace=wrap;html=1;fontFamily=Verdana;fontSize=20;" vertex="1" parent="1">
          <mxGeometry x="340" y="427" width="20" height="30" as="geometry" />
        </mxCell>
        <mxCell id="grEw2Zf5ow2gAflC5v8r-28" value="1" style="text;whiteSpace=wrap;html=1;fontFamily=Verdana;fontSize=20;" vertex="1" parent="1">
          <mxGeometry x="340" y="470" width="20" height="30" as="geometry" />
        </mxCell>
        <mxCell id="grEw2Zf5ow2gAflC5v8r-29" value="1" style="text;whiteSpace=wrap;html=1;fontFamily=Verdana;fontSize=20;" vertex="1" parent="1">
          <mxGeometry x="400" y="500" width="20" height="30" as="geometry" />
        </mxCell>
        <mxCell id="grEw2Zf5ow2gAflC5v8r-30" value="ꝏ" style="text;whiteSpace=wrap;html=1;fontFamily=Verdana;fontSize=20;" vertex="1" parent="1">
          <mxGeometry x="440" y="500" width="20" height="30" as="geometry" />
        </mxCell>
        <mxCell id="grEw2Zf5ow2gAflC5v8r-31" value="ꝏ" style="text;whiteSpace=wrap;html=1;fontFamily=Verdana;fontSize=20;" vertex="1" parent="1">
          <mxGeometry x="580" y="500" width="20" height="30" as="geometry" />
        </mxCell>
        <mxCell id="grEw2Zf5ow2gAflC5v8r-32" value="1" style="text;whiteSpace=wrap;html=1;fontFamily=Verdana;fontSize=20;" vertex="1" parent="1">
          <mxGeometry x="620" y="500" width="20" height="30" as="geometry" />
        </mxCell>
        <mxCell id="grEw2Zf5ow2gAflC5v8r-33" value="ꝏ" style="text;whiteSpace=wrap;html=1;fontFamily=Verdana;fontSize=20;" vertex="1" parent="1">
          <mxGeometry x="340" y="306" width="20" height="30" as="geometry" />
        </mxCell>
        <mxCell id="grEw2Zf5ow2gAflC5v8r-34" value="1" style="text;whiteSpace=wrap;html=1;fontFamily=Verdana;fontSize=20;" vertex="1" parent="1">
          <mxGeometry x="340" y="350" width="20" height="30" as="geometry" />
        </mxCell>
      </root>
    </mxGraphModel>
  </diagram>
</mxfile>
